# xmcd
#
# Track frame offsets:
#	150
#	21712
#	42555
#	55142
#	79035
#	90162
#	108957
#	125870
#	141555
#	158490
#	176942
#	195607
#
# Disc length: 2896 seconds
#
# Revision: 1
# Processed by: cddbd v1.4PL0 Copyright (c) Steve Scherf et al.
# Submitted via: EasyCDDAExtractor 6.0.0.1
#
DISCID=a80b4e0c
DTITLE=Ben Demerath - Jack of Fools
DYEAR=2000
DGENRE=Country
TTITLE0=Every Shade Of Blue
TTITLE1=Your Town
TTITLE2=Farther Stars
TTITLE3=Man Of Constant Sorrow
TTITLE4=Farewell, Farewell
TTITLE5=Little One
TTITLE6=This Wave
TTITLE7=No Need
TTITLE8=Wings On Your Shoulders
TTITLE9=Rake
TTITLE10=Jack Of Fools
TTITLE11=Age
EXTD=
EXTT0=
EXTT1=
EXTT2=
EXTT3=
EXTT4=
EXTT5=
EXTT6=
EXTT7=
EXTT8=
EXTT9=
EXTT10=
EXTT11=
PLAYORDER=
